<svg width="414" height="535" viewBox="0 0 414 535" fill="none" xmlns="http://www.w3.org/2000/svg">
<path opacity="0.2" d="M-25.6248 434.393C6.05156 467.154 51.1668 485.118 95.0481 482.484C134.645 480.101 172.674 460.982 199.174 430.63L193.439 437.796C214.704 415.648 247.36 409.533 277.667 411.873C307.974 414.212 337.472 423.839 367.569 428.643C392.776 432.664 418.368 433.284 443.682 430.487C479.79 426.516 518.134 413.098 536.706 380.76C557.404 344.743 543.312 291.21 507.62 270.283C489.471 259.641 468.239 257.146 448.635 250.06C429.031 242.974 409.093 228.364 405.877 206.97C402.901 187.164 415.329 168.707 429.542 155.703C440.53 145.641 454.284 134.271 452.462 118.881C450.7 104.008 435.121 95.5085 421.202 91.7941C375.866 79.6784 325.842 91.002 290.121 121.454C277.377 132.321 266.364 145.463 252.544 154.797C216.256 179.308 168.926 173.259 125.529 176.841C88.6813 179.906 52.8776 190.501 20.2585 207.99C0.702288 218.483 -18.243 232.09 -29.1865 252.027C-37.0334 266.441 -40.2533 283.115 -43.1134 299.523C-46.144 317.025 -48.892 334.582 -51.3573 352.195C-52.8327 362.77 -54.2154 373.521 -52.848 384.176C-50.3211 403.485 -38.9673 420.604 -25.6248 434.393ZM383.501 340.72L420.784 332.44C421.81 332.212 422.886 332.409 423.776 332.987C424.666 333.565 425.296 334.477 425.529 335.522C425.761 336.568 425.576 337.661 425.014 338.561C424.453 339.461 423.561 340.095 422.535 340.323L409.738 343.165C410.123 343.563 410.422 344.037 410.618 344.557C410.814 345.077 410.903 345.632 410.877 346.186C410.852 346.741 410.714 347.283 410.472 347.779C410.23 348.275 409.889 348.714 409.47 349.068L413.662 348.137C414.688 347.909 415.765 348.105 416.655 348.683C417.545 349.261 418.175 350.174 418.407 351.219C418.639 352.264 418.454 353.357 417.893 354.258C417.331 355.158 416.439 355.792 415.413 356.02L378.135 364.299C377.268 364.497 376.358 364.391 375.552 363.999C374.747 363.608 374.092 362.953 373.693 362.14C373.295 361.328 373.175 360.405 373.354 359.519C373.534 358.634 374.001 357.838 374.681 357.259L370.484 358.192C369.458 358.42 368.381 358.223 367.491 357.645C366.601 357.067 365.971 356.155 365.739 355.109C365.507 354.064 365.692 352.971 366.253 352.071C366.815 351.17 367.707 350.536 368.733 350.308L381.529 347.466C381.004 346.928 380.639 346.25 380.477 345.512C380.252 344.464 380.443 343.371 381.01 342.473C381.577 341.575 382.472 340.944 383.501 340.72ZM309.551 298.151L322.348 295.309C321.849 294.795 321.495 294.155 321.321 293.456C321.147 292.758 321.16 292.026 321.358 291.337C321.557 290.649 321.934 290.028 322.45 289.54C322.966 289.052 323.602 288.715 324.292 288.564L361.57 280.284C362.596 280.056 363.673 280.253 364.563 280.831C365.453 281.409 366.083 282.321 366.315 283.366C366.547 284.412 366.362 285.505 365.801 286.405C365.239 287.306 364.347 287.94 363.321 288.167L350.525 291.009C350.909 291.408 351.208 291.882 351.404 292.402C351.6 292.922 351.688 293.478 351.662 294.032C351.636 294.587 351.498 295.13 351.255 295.625C351.012 296.121 350.671 296.56 350.252 296.913L354.449 295.981C355.475 295.753 356.551 295.95 357.441 296.528C358.331 297.106 358.962 298.018 359.194 299.063C359.426 300.109 359.241 301.202 358.679 302.102C358.118 303.002 357.226 303.636 356.2 303.864L318.922 312.144C318.055 312.338 317.147 312.231 316.343 311.838C315.539 311.444 314.887 310.789 314.491 309.976C314.094 309.164 313.977 308.242 314.159 307.358C314.34 306.474 314.808 305.68 315.489 305.104L311.297 306.035C310.271 306.263 309.194 306.067 308.305 305.489C307.415 304.911 306.784 303.999 306.552 302.953C306.32 301.908 306.505 300.815 307.066 299.914C307.628 299.014 308.52 298.38 309.546 298.152L309.551 298.151ZM262.805 352.815L261.988 351.99C263.229 351.556 264.551 351.4 265.861 351.535C267.768 351.267 269.714 351.562 271.469 352.385L268.323 353.669C268.585 354.656 268.524 356.053 267.941 358.021L264.988 355.028L259.363 357.316C260.081 355.521 261.272 353.964 262.805 352.815ZM167.789 331.879L166.971 331.054C168.214 330.623 169.534 330.468 170.845 330.599C172.752 330.331 174.698 330.626 176.453 331.449L173.306 332.733C173.568 333.72 173.508 335.117 172.925 337.085L169.972 334.092L164.346 336.381C165.065 334.585 166.255 333.028 167.789 331.879ZM107.225 379.929L106.408 379.104C107.65 378.669 108.971 378.514 110.281 378.648C112.197 378.383 114.152 378.686 115.911 379.521L112.764 380.805C113.026 381.792 112.966 383.189 112.382 385.157L109.429 382.164L103.809 384.452C104.515 382.65 105.697 381.086 107.225 379.929ZM70.5166 431.472L83.3128 428.63C82.8145 428.116 82.4599 427.476 82.2859 426.777C82.1118 426.079 82.1248 425.347 82.3233 424.658C82.5219 423.97 82.8988 423.349 83.4149 422.861C83.9309 422.373 84.5672 422.036 85.2575 421.885L122.525 413.607C123.551 413.38 124.628 413.576 125.518 414.154C126.408 414.732 127.038 415.644 127.27 416.69C127.502 417.735 127.317 418.828 126.756 419.729C126.194 420.629 125.302 421.263 124.276 421.491L111.48 424.333C111.863 424.733 112.162 425.209 112.356 425.731C112.55 426.252 112.636 426.809 112.608 427.364C112.58 427.92 112.438 428.463 112.193 428.958C111.947 429.453 111.603 429.891 111.181 430.242L115.378 429.31C116.404 429.082 117.481 429.279 118.371 429.857C119.261 430.435 119.891 431.347 120.123 432.392C120.355 433.438 120.17 434.531 119.609 435.431C119.047 436.331 118.155 436.965 117.129 437.193L79.8511 445.473C78.9843 445.667 78.0761 445.56 77.2724 445.167C76.4687 444.773 75.8162 444.118 75.42 443.305C75.0238 442.493 74.9069 441.571 75.088 440.687C75.2691 439.803 75.7377 439.009 76.4185 438.433L72.2675 439.355C71.2412 439.583 70.1647 439.387 69.2749 438.808C68.385 438.23 67.7546 437.318 67.5225 436.273C67.2903 435.228 67.4753 434.135 68.0368 433.234C68.5984 432.334 69.4903 431.7 70.5166 431.472Z" fill="#44B2BF"/>
<path d="M25.7078 94.5H76.3078V115.7H89.5078V83.9H25.7078V94.5ZM64.5078 66.4V56.6H90.5078V46.1H39.8078V24.9H26.6078V56.6H51.3078V66.4H16.4078V76.9H99.7078V66.4H64.5078ZM154.7 64.7C142.5 59.6 137.6 49.5 137.6 39.3V28.6H124.9V39.3C124.9 49.8 119.9 61.2 107 66.9L114 77.2C122.5 73.5 128.1 67 131.5 59.2C134.7 66 140 71.5 147.7 74.7L154.7 64.7ZM123.4 93.9H173.6V115.7H186.8V83.5H123.4V93.9ZM174.3 23.5V45.9H167.1V24.9H154.8V78.9H167.1V56.5H174.3V79.4H186.8V23.5H174.3Z" fill="url(#paint0_linear)"/>
<path d="M258.007 380.6H244.807V394C244.807 411.9 237.207 429.7 221.107 436.6L229.007 447.5C240.007 442.3 247.507 432.4 251.607 420.1C255.707 431.4 262.807 440.5 273.407 445.3L280.907 434.6C265.307 427.9 258.007 411.1 258.007 394V380.6ZM285.407 373.4V465.8H298.607V373.4H285.407ZM317.6 380.4V390.9H347.6C345.5 403.8 334.1 414.5 313.6 420.1L319.1 430.6C346.5 422.7 361.9 405.4 361.9 380.4H317.6ZM340.5 432.8H327.3V464H389.9V453.5H340.5V432.8ZM386.7 399.2V373.5H373.5V439.4H386.7V410H399V399.2H386.7Z" fill="url(#paint1_linear)"/>
<path d="M22.3659 318.377C19.3716 320.046 17.1574 322.83 16.2045 326.123C15.2516 329.416 15.6371 332.952 17.2772 335.963L72.7845 435.729C73.6112 437.239 74.7298 438.569 76.0752 439.642C77.4206 440.715 78.966 441.51 80.6215 441.98C82.277 442.45 84.0094 442.587 85.7181 442.382C87.4268 442.176 89.0776 441.633 90.5744 440.784L394.017 264.796C395.7 263.841 397.148 262.523 398.255 260.936C399.362 259.35 400.101 257.536 400.417 255.628C400.733 253.719 400.619 251.764 400.082 249.906C399.546 248.047 398.6 246.332 397.316 244.886L325.003 162.13C323.052 159.913 320.398 158.432 317.486 157.934C314.574 157.437 311.58 157.955 309.003 159.4L22.3659 318.377Z" fill="#AEACAC"/>
<path d="M382.646 251.668L374.515 242.693C375.047 244.825 374.84 247.075 373.93 249.076C373.02 251.076 371.459 252.71 369.501 253.71C367.544 254.71 365.306 255.018 363.152 254.583C360.997 254.149 359.053 252.998 357.636 251.318L305.893 190.053C304.716 188.662 303.954 186.969 303.693 185.166C303.432 183.362 303.683 181.522 304.417 179.855C305.152 178.187 306.34 176.76 307.846 175.735C309.352 174.71 311.116 174.129 312.936 174.057L308.747 169.433C308.204 168.833 307.471 168.437 306.671 168.312C305.871 168.187 305.053 168.34 304.352 168.745L32.2632 320.771C31.8546 321.007 31.4975 321.323 31.2127 321.699C30.9278 322.075 30.7211 322.505 30.6046 322.962C30.4881 323.419 30.4642 323.895 30.5343 324.362C30.6044 324.828 30.767 325.276 31.0127 325.679L88.1157 422.869C88.5947 423.654 89.3605 424.222 90.251 424.452C91.1415 424.683 92.0868 424.558 92.8866 424.103L381.771 257.123C382.232 256.861 382.628 256.499 382.93 256.063C383.233 255.628 383.433 255.13 383.517 254.606C383.601 254.082 383.567 253.546 383.416 253.038C383.265 252.53 383.002 252.062 382.646 251.668Z" fill="white"/>
<path d="M105.898 290.912L154.699 370.932L353.46 259.18L288.204 185.767L105.898 290.912Z" fill="#E6E6E6"/>
<path d="M88.6407 359.926C97.1266 362.249 105.889 357.253 108.211 348.767C110.534 340.281 105.538 331.519 97.0517 329.196C88.5657 326.873 79.8037 331.87 77.481 340.356C75.1584 348.842 80.1547 357.604 88.6407 359.926Z" fill="#AEACAC"/>
<path opacity="0.1" d="M175.751 352.239C188.924 347.605 198.429 340.511 196.981 336.395C195.533 332.278 183.68 332.698 170.507 337.332C157.333 341.966 147.828 349.059 149.276 353.176C150.724 357.293 162.577 356.873 175.751 352.239Z" fill="#00BFA6"/>
<path opacity="0.1" d="M194.697 289.867C201.789 287.373 206.907 283.554 206.127 281.338C205.348 279.122 198.967 279.349 191.874 281.843C184.782 284.338 179.665 288.157 180.444 290.373C181.223 292.588 187.605 292.362 194.697 289.867Z" fill="#00BFA6"/>
<path d="M107.726 141.211L94.19 157.232C94.19 157.232 71.7995 159.128 75.8448 152.597C77.6462 149.693 77.181 145.005 76.1014 140.695C75.7619 139.347 75.3649 138.034 74.9626 136.824C74.251 134.691 73.4248 132.598 72.4876 130.554C72.4876 130.554 94.8524 118.118 94.0256 125.271C93.8244 127.009 94.5333 128.84 95.7139 130.625C96.1958 131.339 96.7215 132.023 97.2881 132.671C101.355 137.356 107.726 141.211 107.726 141.211Z" fill="#FFCCD0"/>
<path opacity="0.1" d="M94.0257 125.271C93.8245 127.009 94.5334 128.84 95.714 130.625C93.8399 133.895 90.8506 136.381 87.2936 137.627C83.3808 139.003 80.7095 136.201 77.1894 134.681C76.9145 134.559 75.828 135.536 75.5832 135.394C74.3839 131.8 72.492 130.567 72.492 130.567C72.492 130.567 94.8649 118.114 94.0257 125.271Z" fill="black"/>
<path d="M96.7699 117.049C98.0275 120.631 97.9506 124.546 96.5533 128.076C95.1559 131.606 92.5319 134.513 89.1632 136.264C85.7945 138.015 81.9074 138.491 78.2156 137.606C74.5239 136.721 71.2755 134.533 69.067 131.445C66.8586 128.357 65.8384 124.576 66.1938 120.796C66.5492 117.017 68.2563 113.492 71.0017 110.87C73.7471 108.248 77.3463 106.704 81.1383 106.523C84.9304 106.341 88.6606 107.534 91.6439 109.882C93.999 111.735 95.777 114.221 96.7699 117.049Z" fill="#FFCCD0"/>
<path opacity="0.1" d="M91.6444 109.882C91.4267 110.106 91.1857 110.306 90.9256 110.478C89.8568 111.188 88.5846 111.492 87.3416 111.799C87.1377 111.826 86.9486 111.921 86.8043 112.067C86.6416 112.278 86.6852 112.573 86.694 112.849C86.7062 113.926 85.9081 114.839 85.0658 115.506C83.341 116.856 81.2481 117.652 79.0624 117.79C78.7639 117.784 78.4673 117.839 78.191 117.952C77.5699 118.259 77.4313 119.093 77.5547 119.774C77.6781 120.454 77.9814 121.118 77.9483 121.803C77.9043 122.998 76.8912 123.893 76.0293 124.716C75.1674 125.54 74.2996 126.676 74.6468 127.821C74.8419 128.482 75.3927 128.952 75.7228 129.56C76.0003 130.1 76.1112 130.71 76.0415 131.313C75.9718 131.917 75.7246 132.485 75.3312 132.948C75.5095 134.198 75.6039 135.458 75.6137 136.721C73.5511 135.833 71.7021 134.514 70.1903 132.854C68.6784 131.193 67.5388 129.229 66.8475 127.092C66.1563 124.955 65.9295 122.696 66.1822 120.464C66.4349 118.233 67.1613 116.081 68.3129 114.153C69.4644 112.225 71.0145 110.565 72.8594 109.285C74.7043 108.005 76.8014 107.133 79.0104 106.729C81.2193 106.324 83.4892 106.396 85.6681 106.94C87.8469 107.484 89.8845 108.487 91.6444 109.882Z" fill="black"/>
<path d="M86.6442 100.59C84.8172 100.018 82.8549 100.046 81.045 100.67C79.5543 101.25 78.3146 102.345 76.8426 102.965C73.5685 104.349 69.3348 103.322 66.6781 105.682C64.7258 107.418 64.188 110.588 61.8335 111.709C61.1724 112.02 60.4358 112.131 59.7575 112.407C59.0791 112.682 58.4311 113.203 58.3183 113.925C58.3007 114.546 58.4721 115.158 58.8099 115.679C60.0411 118.193 60.6314 120.973 60.5281 123.771C60.4755 125.113 60.2859 126.554 60.9438 127.725C61.4937 128.585 62.3269 129.226 63.2996 129.538C63.5774 129.911 63.9481 130.205 64.3748 130.39C65.2021 130.749 66.1757 130.903 66.7715 131.581C67.689 132.618 67.3146 134.445 68.3793 135.333C68.8254 135.65 69.3442 135.849 69.8877 135.912C71.5749 136.247 73.2731 136.517 74.9822 136.72C74.9755 135.357 74.8766 133.995 74.6864 132.645C75.0798 132.183 75.327 131.614 75.3967 131.011C75.4664 130.408 75.3554 129.798 75.0779 129.258C74.7384 128.662 74.1833 128.179 74.002 127.519C73.6589 126.372 74.517 125.234 75.3831 124.41C76.2491 123.585 77.2539 122.693 77.3076 121.499C77.3392 120.81 77.0333 120.152 76.9098 119.471C76.7864 118.79 76.9236 117.953 77.5447 117.646C77.8218 117.534 78.1188 117.48 78.4175 117.487C80.6028 117.346 82.6945 116.549 84.4195 115.2C85.2674 114.535 86.064 113.618 86.0477 112.542C86.0404 112.271 85.9953 111.971 86.1622 111.759C86.3048 111.613 86.4926 111.519 86.6953 111.493C87.9383 111.185 89.2132 110.876 90.2808 110.176C91.1959 109.522 91.8986 108.614 92.3013 107.564C92.7039 106.515 92.7888 105.369 92.5452 104.272C92.0249 102.04 88.6357 101.143 86.6442 100.59Z" fill="#424B5A"/>
<path opacity="0.1" d="M86.6435 100.59C85.924 100.389 85.1864 100.26 84.4415 100.204C84.8083 100.27 85.1794 100.348 85.5399 100.449C87.5313 101.002 90.9235 101.907 91.4287 104.149C91.6735 105.246 91.5898 106.391 91.1878 107.441C90.7858 108.49 90.0834 109.398 89.1684 110.051C88.0981 110.757 86.8259 111.061 85.5829 111.368C85.3796 111.397 85.1911 111.491 85.0457 111.636C84.8788 111.848 84.9266 112.142 84.9311 112.419C84.9531 113.498 84.155 114.41 83.3071 115.075C81.5829 116.429 79.4886 117.227 77.301 117.364C77.0024 117.358 76.7055 117.412 76.4281 117.523C75.8071 117.83 75.6699 118.667 75.7933 119.348C75.9168 120.029 76.2227 120.687 76.1911 121.376C76.1457 122.567 75.1299 123.468 74.2639 124.292C73.3978 125.117 72.5424 126.249 72.8855 127.396C73.0791 128.052 73.6272 128.528 73.9614 129.135C74.2389 129.675 74.3499 130.285 74.2801 130.888C74.2104 131.491 73.9632 132.06 73.5698 132.522C73.7548 133.863 73.8517 135.214 73.8596 136.567C74.2303 136.617 74.5956 136.679 74.9634 136.722C74.9567 135.358 74.8579 133.997 74.6676 132.647C75.061 132.185 75.3082 131.616 75.3779 131.013C75.4477 130.409 75.3367 129.799 75.0592 129.259C74.7197 128.664 74.1646 128.181 73.9833 127.52C73.6402 126.374 74.4983 125.236 75.3643 124.411C76.2303 123.587 77.2352 122.695 77.2889 121.501C77.3205 120.812 77.0146 120.153 76.8911 119.473C76.7677 118.792 76.9049 117.954 77.5259 117.647C77.803 117.536 78.1001 117.482 78.3988 117.489C80.584 117.348 82.6758 116.55 84.4008 115.201C85.2486 114.536 86.0453 113.62 86.0289 112.544C86.0217 112.272 85.9766 111.973 86.1435 111.761C86.2861 111.614 86.4739 111.52 86.6765 111.494C87.9196 111.187 89.1944 110.878 90.262 110.177C91.1772 109.524 91.8799 108.616 92.2825 107.566C92.6852 106.516 92.77 105.371 92.5265 104.273C92.0242 102.04 88.6349 101.143 86.6435 100.59Z" fill="black"/>
<path d="M62.0664 134.573C62.0664 134.573 60.6035 141.291 59.0748 141.828C58.3535 142.144 57.6945 142.587 57.1293 143.135C56.5519 143.653 56.009 144.208 55.5041 144.798L47.9609 140.988C47.9609 140.988 48.4017 139.997 48.9843 138.617C50.0973 135.974 51.7299 131.904 51.7251 130.689C51.7304 128.83 60.0706 121.415 61.4963 123.95C62.922 126.485 62.0664 134.573 62.0664 134.573Z" fill="#FFCCD0"/>
<path d="M177.416 217.906C171.983 222.723 168.553 210.344 168.2 208.523C167.929 207.147 166.306 204.342 165.552 203.094C165.32 202.711 165.163 202.464 165.163 202.464L165.34 197.833C165.34 197.833 173.244 195.225 173.616 196.282C173.769 196.716 174.656 197.774 175.647 198.874C177.078 200.46 178.732 202.139 178.732 202.139C178.732 202.139 182.851 213.097 177.416 217.906Z" fill="#FFCCD0"/>
<path d="M173.408 328.051C173.408 328.051 165.56 336.88 165.094 332.559C164.901 331.417 164.453 330.334 163.784 329.389C162.562 327.582 161.143 325.917 159.553 324.423C157.907 322.82 156.53 321.716 156.53 321.716C156.53 321.716 164.203 312.021 165.149 314.329C165.946 315.942 166.826 317.512 167.784 319.035C169.414 321.739 171.372 324.853 172.496 326.621L173.408 328.051Z" fill="#BDBDBD"/>
<path opacity="0.1" d="M173.408 328.051C173.408 328.051 165.561 336.88 165.094 332.559C164.901 331.417 164.453 330.334 163.784 329.389C164.742 328.552 165.831 327.879 167.007 327.396C167.96 326.002 171.714 326.497 172.496 326.621L173.408 328.051Z" fill="black"/>
<path d="M167.173 327.867C167.173 327.867 161.942 329.972 163.396 332.232C164.851 334.492 164.824 342.284 164.824 342.284C164.824 342.284 163.601 347.069 165.866 348.255C168.131 349.441 182.909 345.691 182.958 343.956C183.007 342.22 177.424 333.501 177.424 333.501L172.815 327.131C172.815 327.131 168.238 326.304 167.173 327.867Z" fill="#4D507F"/>
<path d="M187.797 261.673L181.202 266.315C180.569 265.365 179.84 264.482 179.027 263.681C178.597 263.257 178.136 262.865 177.649 262.508C175.898 261.239 173.695 260.51 171.506 262.125C166.716 265.667 167.768 251.498 167.768 251.498C167.768 251.498 169.004 250.367 170.226 249.156L170.51 248.866C171.491 247.867 172.404 246.858 172.555 246.406C172.849 245.55 179.59 249.113 182.166 250.51C182.774 250.839 183.146 251.052 183.146 251.052L185.11 255.538L187.797 261.673Z" fill="#BDBDBD"/>
<path opacity="0.1" d="M187.797 261.673L181.202 266.315C180.569 265.365 179.84 264.482 179.027 263.681C178.98 262.597 179.197 260.668 181.222 260.235C183.555 259.739 180.497 252.049 176.704 251.27C172.911 250.492 170.99 251.038 170.99 251.038C170.572 250.49 170.309 249.84 170.226 249.157L170.51 248.867C171.49 247.867 172.403 246.859 172.555 246.406C172.849 245.55 179.59 249.113 182.166 250.51C183.246 252.405 184.077 254.253 185.109 255.538L187.797 261.673Z" fill="black"/>
<path d="M171.464 250.88C171.107 250.412 170.86 249.87 170.742 249.293C170.624 248.716 170.637 248.12 170.782 247.55C170.926 246.979 171.197 246.448 171.575 245.997C171.953 245.545 172.428 245.185 172.964 244.943C174.788 244.121 176.993 243.856 178.981 245.613C183.377 249.48 184.184 255.534 187.435 256.897C190.687 258.261 194.303 265.161 192.916 266.842C191.529 268.523 187.511 275.736 185.928 272.991C184.345 270.247 179.584 264.275 179.584 264.275C179.584 264.275 178.856 260.7 181.698 260.095C184.035 259.598 180.977 251.908 177.184 251.129C173.39 250.351 171.47 250.897 171.47 250.897L171.464 250.88Z" fill="#4D507F"/>
<path opacity="0.1" d="M167.784 319.035C165.52 320.648 162.223 322.918 159.553 324.423C157.907 322.82 156.53 321.716 156.53 321.716C156.53 321.716 164.203 312.021 165.149 314.329C165.946 315.942 166.826 317.512 167.784 319.035Z" fill="black"/>
<path opacity="0.1" d="M177.652 262.517C175.9 261.248 173.698 260.518 171.509 262.133C166.719 265.676 167.77 251.506 167.77 251.506C167.77 251.506 169.207 250.193 170.513 248.875C171.46 248.467 173.177 247.975 174.177 249.09C175.589 250.66 178.293 257.82 177.652 262.517Z" fill="black"/>
<path d="M177.14 263.003C176.322 267.688 165.391 270.126 165.391 270.126C155.168 267.566 139.865 247.068 139.865 247.068L148.955 276.423C148.955 276.423 152.551 278.144 152.534 280.09C152.518 282.037 154.712 284.775 154.712 284.775C154.712 284.775 166.145 309.782 166.07 311.573C165.994 313.364 170.136 316.123 170.136 316.123C170.136 316.123 156.914 326.053 154.95 324.984C152.986 323.915 153.787 321.679 153.787 321.679L152.684 318.543C141.645 307.647 136.913 294.709 136.297 294.396C135.681 294.084 134.353 291.366 133.921 290.664C133.488 289.961 132.707 287.214 132.707 287.214C132.707 287.214 132.119 284.96 130.74 284.038C129.362 283.116 129.733 278.76 129.733 278.76C128.433 275.921 126.638 273.336 124.433 271.124C120.969 267.77 112.87 253.022 112.87 253.022C112.87 253.022 111.345 250.916 111.534 249.448C111.723 247.979 105.428 242.096 105.428 242.096C105.428 242.096 104.552 236.595 104.264 235.29C103.977 233.984 99.0015 232.828 99.0015 232.828L99.1275 227.114L99.2502 221.035C99.2502 221.035 146.236 205.561 148.336 205.523C149.351 205.505 150.786 206.932 152.003 208.412C152.849 209.456 153.641 210.543 154.374 211.669C154.374 211.669 159.795 228.585 161.78 231.23C163.764 233.874 164.002 235.555 164.002 235.555C164.002 235.555 165.005 241.888 166.496 243.648C167.988 245.408 169.376 249.326 169.376 249.326C169.376 249.326 172.287 247.596 173.725 249.189C175.162 250.782 177.949 258.322 177.14 263.003Z" fill="#406B5A"/>
<path opacity="0.1" d="M107.726 141.211L94.1901 157.232C94.1901 157.232 71.7997 159.128 75.8449 152.598C77.6463 149.694 77.1811 145.005 76.1016 140.695C81.5764 145.33 87.3138 143.716 89.8084 142.611C90.5621 142.285 91.3404 142.016 92.1058 141.724C95.6242 140.375 97.041 133.975 97.28 132.675C101.355 137.356 107.726 141.211 107.726 141.211Z" fill="black"/>
<path opacity="0.1" d="M151.982 208.471C152.006 208.541 152.03 208.607 152.049 208.661C152.387 210.125 146.636 214.79 146.636 214.79C146.636 214.79 117.742 229.175 114.196 227.594C110.903 226.153 100.647 227.012 99.1058 227.145L99.2285 221.066C99.2285 221.066 146.215 205.592 148.314 205.554C149.328 205.56 150.763 206.987 151.982 208.471Z" fill="black"/>
<path d="M145.513 191.612C145.513 191.612 152.004 197.064 149.726 199.63C147.448 202.195 151.359 206.266 151.698 207.73C152.037 209.194 146.284 213.855 146.284 213.855C146.284 213.855 117.391 228.244 113.844 226.659C110.296 225.075 98.5559 226.229 98.5559 226.229C95.8212 223.051 92.7486 220.18 89.3925 217.668C84.1836 213.868 85.4746 203.032 85.4746 203.032C85.4746 203.032 82.2882 197.472 79.3338 196.57C76.3794 195.669 67.5366 180.509 65.0562 175.926C62.5758 171.343 54.8576 181.449 54.8576 181.449C54.8576 181.449 42.4533 186.695 39.5205 186.844C39.462 186.848 39.4034 186.842 39.347 186.827C36.9026 186.187 44.2862 167.394 44.2862 167.394C44.2862 167.394 53.0773 162.371 51.922 159.601C51.1199 157.664 54.6681 153.166 56.8719 150.64C57.8208 149.549 58.5196 148.83 58.5196 148.83L62.2754 147.509C63.6843 147.013 62.2901 145.043 62.2901 145.043C62.2901 145.043 65.2185 144.366 66.2888 142.406C67.3591 140.446 76.212 141.102 76.212 141.102C81.7045 145.8 87.4747 144.16 89.982 143.065C90.7372 142.744 91.5154 142.474 92.2793 142.178C96.2039 140.677 97.515 132.907 97.515 132.907C97.515 132.907 108.967 129.692 118.539 131.956C128.111 134.221 141.234 145.962 141.234 145.962C141.234 145.962 134.615 164.658 132.614 165.013C130.612 165.369 137.278 171.289 137.278 171.289L145.513 191.612Z" fill="#FF8E59"/>
<path opacity="0.1" d="M56.8624 150.653C56.9433 152.282 57.0451 154.168 57.137 154.958C57.3228 156.476 54.5351 159.044 54.5351 159.044C54.5351 159.044 52.8844 164.37 53.4746 165.045C54.0648 165.719 52.1349 169.737 51.8701 172.996C51.6052 176.256 40.4583 186.515 40.4583 186.515C40.1017 186.663 39.7286 186.768 39.347 186.827C36.9025 186.187 44.2862 167.395 44.2862 167.395C44.2862 167.395 53.0773 162.371 51.922 159.601C51.1103 157.677 54.6586 153.179 56.8624 150.653Z" fill="black"/>
<path opacity="0.1" d="M57.1293 143.135C56.5518 143.653 56.009 144.208 55.5041 144.798L47.9609 140.988C47.9609 140.988 48.4017 139.997 48.9843 138.617C49.7902 140.697 55.0284 142.495 57.1293 143.135Z" fill="black"/>
<path d="M48.5756 138.617L45.0218 143.034C45.0218 143.034 40.651 145.616 40.3059 150.139C39.9608 154.662 35.3092 157.357 35.3092 157.357L33.9997 163.626C33.9997 163.626 27.3327 169.686 30.3252 179.697C33.3176 189.709 39.5248 186.843 39.5248 186.843C39.5248 186.843 50.6938 176.581 50.953 173.319C51.2123 170.056 53.1492 166.046 52.5576 165.367C51.966 164.688 53.6139 159.368 53.6139 159.368C53.6139 159.368 56.4223 156.792 56.22 155.28C56.0177 153.768 55.8297 148.165 55.8297 148.165L57.7131 144.016C57.7131 144.016 48.3614 141.506 48.5756 138.617Z" fill="#DCE6F2"/>
<path opacity="0.1" d="M175.664 198.868C173.23 199.501 166.245 201.448 165.543 203.096C165.311 202.714 165.155 202.467 165.155 202.467L165.332 197.836C165.332 197.836 173.236 195.227 173.608 196.285C173.786 196.71 174.673 197.768 175.664 198.868Z" fill="black"/>
<path d="M133.798 143.299L141.235 145.963L146.924 153.637C146.924 153.637 152.904 159.627 156.263 162.67C159.623 165.714 162.495 171.384 162.495 171.384C162.495 171.384 163.953 174.038 165.225 174.645C166.497 175.251 166.603 178.562 166.603 178.562C166.603 178.562 168.909 181.618 170.288 182.544C171.668 183.47 172.767 189.589 172.767 189.589L174.005 191.79C174.005 191.79 176.507 193.729 175.623 194.212C174.739 194.694 176.158 197.738 176.158 197.738C176.158 197.738 164.968 200.444 165.162 202.488C165.162 202.488 161.787 198.396 161.55 196.72C161.313 195.043 157.321 191.707 157.321 191.707C157.321 191.707 155.62 190.369 155.43 188.324C155.24 186.278 150.86 181.838 150.86 181.838C150.86 181.838 148.736 177.306 147.909 177.95C147.081 178.594 145.628 176.468 145.139 175.581C144.651 174.695 139.16 169.592 139.16 169.592L129.777 163.917L133.798 143.299Z" fill="#DCE6F2"/>
<path opacity="0.05" d="M114.374 150.132C114.374 150.132 120.28 162.318 125.249 161.977C130.218 161.636 125.861 156.482 125.861 156.482L120.325 152.993L114.374 150.132Z" fill="black"/>
<path opacity="0.05" d="M92.3369 183.523C92.3369 183.523 115.593 194.662 121.874 188.705C128.155 182.749 104.71 193.025 92.3369 183.523Z" fill="black"/>
<path opacity="0.05" d="M120.095 199.936C120.095 199.936 131.816 196.588 133.92 191.641C136.025 186.695 120.095 199.936 120.095 199.936Z" fill="black"/>
<path opacity="0.05" d="M117.001 217.447C116.371 217.265 137.435 209.103 141.671 202.733C145.907 196.363 134.268 222.474 117.001 217.447Z" fill="black"/>
<path opacity="0.05" d="M56.9746 162.56C56.9746 162.56 63.1416 165.572 64.8628 169.146C66.5841 172.719 56.9746 162.56 56.9746 162.56Z" fill="black"/>
<path opacity="0.05" d="M69.9148 162.507C69.9148 162.507 73.8081 174.895 79.6631 175.45C85.518 176.004 71.5205 172.338 69.9148 162.507Z" fill="black"/>
<path opacity="0.05" d="M147.209 172.239C147.209 172.239 154.896 165.357 157.188 167.266C159.48 169.176 156.943 170.529 156.943 170.529L147.209 172.239Z" fill="black"/>
<path opacity="0.05" d="M163.105 180.113C160.204 183.747 157.344 184.525 158.336 186.489C159.329 188.452 159.379 187.538 161.705 186.125C164.031 184.713 163.105 180.113 163.105 180.113Z" fill="black"/>
<path opacity="0.05" d="M169.213 188.727C169.213 188.727 166.095 194.16 164.767 194.859C163.439 195.558 169.213 188.727 169.213 188.727Z" fill="black"/>
<path opacity="0.1" d="M151.562 213.057C151.562 213.057 153.104 214.804 148.502 218.707C143.899 222.61 151.562 213.057 151.562 213.057Z" fill="black"/>
<path opacity="0.1" d="M153.023 229.964C153.023 229.964 146.01 232.254 149.551 234.705C153.092 237.155 153.023 229.964 153.023 229.964Z" fill="black"/>
<path opacity="0.1" d="M105.447 231.261C105.447 231.261 118.483 233.315 123.245 232.346C128.007 231.377 115.86 237.855 105.447 231.261Z" fill="black"/>
<path opacity="0.1" d="M131.842 276.295C131.842 276.295 133.379 278.921 138.535 278.691C143.691 278.46 146.872 276.111 146.799 275.784C146.725 275.457 131.842 276.295 131.842 276.295Z" fill="black"/>
<path opacity="0.1" d="M166.083 333.864C166.083 333.864 172.855 334.732 173.127 331.386L166.083 333.864Z" fill="black"/>
<path opacity="0.1" d="M185.6 262.925C185.6 262.925 185.728 266.325 184.014 267.048L185.6 262.925Z" fill="black"/>
<path opacity="0.1" d="M264.906 223.515C271.999 221.02 277.116 217.201 276.337 214.986C275.557 212.77 269.176 212.996 262.084 215.491C254.992 217.986 249.874 221.804 250.653 224.02C251.433 226.236 257.814 226.01 264.906 223.515Z" fill="#00BFA6"/>
<path opacity="0.1" d="M302.422 248.447C315.595 243.813 325.101 236.719 323.653 232.603C322.205 228.486 310.352 228.905 297.178 233.539C284.004 238.173 274.499 245.267 275.947 249.384C277.395 253.5 289.248 253.081 302.422 248.447Z" fill="#00BFA6"/>
<path d="M190.32 144.791C190.32 144.791 189.899 145.919 189.204 147.598C187.279 152.25 183.231 161.107 180.097 161.755C175.838 162.635 174.224 151.066 176.488 149.74C177.863 148.936 180.73 145.959 182.779 143.734C184.127 142.285 185.086 141.172 185.086 141.172L190.32 144.791Z" fill="#FFCCD0"/>
<path d="M294.728 243.799C294.16 243.915 288.461 235.974 287.542 232.862C286.99 230.989 286.493 227.622 286.189 225.24C285.993 223.679 285.883 222.562 285.883 222.562L296.262 220.137C296.262 220.137 296.777 221.181 297.476 222.653C298.855 225.544 300.93 230.083 301.148 231.521C301.453 233.707 304.377 233.203 307.968 237.92C311.559 242.637 295.306 243.688 294.728 243.799Z" fill="#4D507F"/>
<path d="M263.979 198.402C263.752 199.457 264.202 201.476 264.677 203.143C265.098 204.643 265.549 205.859 265.549 205.859C265.549 205.859 268.043 212.197 266.332 216.838C264.622 221.479 259.449 219.524 255.63 213.921C252.978 210.025 254.341 204.262 255.417 201.107C255.892 199.724 256.307 198.844 256.307 198.844C256.307 198.844 264.405 196.404 263.979 198.402Z" fill="#4D507F"/>
<path d="M216.13 48.0002C216.13 48.0002 204.755 51.0359 206.372 56.8883C207.99 62.7406 210.513 66.798 219.237 64.5138C227.961 62.2297 219.186 47.0508 219.186 47.0508L216.13 48.0002Z" fill="#575A89"/>
<path d="M237.632 43.6587C237.632 43.6587 247.899 38.1437 249.309 42.4022C250.719 46.6608 244.439 55.0496 244.439 55.0496L237.632 43.6587Z" fill="#575A89"/>
<path opacity="0.15" d="M216.539 47.8563C216.539 47.8563 205.168 50.8906 206.786 56.7429C208.403 62.5952 210.922 66.6541 219.646 64.3699C228.37 62.0858 219.599 46.9054 219.599 46.9054L216.539 47.8563Z" fill="#44B2BF"/>
<path opacity="0.15" d="M238.554 43.3344C238.554 43.3344 248.82 37.8194 250.23 42.0779C251.64 46.3365 245.356 54.7267 245.356 54.7267L238.554 43.3344Z" fill="#44B2BF"/>
<path d="M218.676 45.2847C216.065 47.5756 213.779 50.212 211.882 53.121C211.593 53.4744 211.438 53.9186 211.445 54.3749C211.539 54.7118 211.662 55.0397 211.813 55.3551C212.328 57.0311 209.878 58.0509 209.186 59.6734C208.694 60.8216 209.186 62.1807 209.95 63.1655C210.714 64.1502 211.767 64.8851 212.597 65.8189C213.513 66.8704 214.156 68.1322 214.467 69.4921C214.779 70.8519 214.75 72.2676 214.382 73.6134C213.739 75.8778 212.176 77.7556 211.184 79.8873C209.87 82.7501 209.824 86.6712 212.346 88.5883C213.888 89.7639 216.007 89.9145 217.6 91.0117C219.32 92.2037 220.157 94.3191 220.567 96.3708C220.978 98.4225 221.063 100.552 221.741 102.532C223.061 106.405 226.588 109.278 230.509 110.457C234.429 111.636 238.696 111.291 242.615 110.145C244.01 109.742 245.423 109.218 246.466 108.21C247.509 107.202 248.103 105.777 248.568 104.378C249.972 100.173 250.632 95.7553 250.518 91.3233C250.469 89.4042 250.288 87.411 251.01 85.6343C251.576 84.4424 252.339 83.3545 253.267 82.4165L257.687 77.3982C259.136 75.7508 260.682 73.8233 260.449 71.644C260.184 69.1743 257.665 67.0798 258.265 64.6679C258.454 63.8863 258.979 63.2141 259.249 62.4644C259.991 60.3091 258.608 58.0006 256.983 56.4039C255.656 55.0956 254.142 53.993 252.489 53.1326C251.065 52.3984 249.499 51.8119 248.436 50.6118C247.62 49.6916 247.178 48.4868 246.401 47.5341C244.776 45.5523 242.049 44.9559 239.881 43.5967C238.091 42.4668 236.65 40.7867 234.719 39.9292C231.586 38.5333 229.229 40.1611 226.367 41.2653C224.953 41.8136 223.437 41.7527 222.019 42.2236C220.35 42.7595 220.014 44.1129 218.676 45.2847Z" fill="#663D5C"/>
<path d="M238.814 42.6487L213.622 48.7244C213.622 48.7244 213.607 48.4047 213.567 47.8152C213.399 45.4711 213.107 43.1375 212.691 40.8244C211.92 36.6384 220.652 32.4245 220.652 32.4245C222.869 31.4075 225.327 31.0359 227.745 31.3523C230.163 31.6686 232.443 32.6602 234.324 34.2131L237.73 40.6108L238.814 42.6487Z" fill="#F0D473"/>
<path d="M252.674 67.3451L252.304 78.2933L237.401 86.5723C237.401 86.5723 217.446 89.1068 223.082 77.7545C223.742 76.4465 224.302 75.0901 224.756 73.6972C225.214 72.3221 225.465 70.8866 225.5 69.4377C225.526 65.1291 222.74 64.0198 222.74 64.0198C222.74 64.0198 235.834 51.3628 238.92 59.3824C239.613 61.1874 240.783 62.7706 242.305 63.963C243.148 64.6214 244.066 65.179 245.039 65.6245C247.447 66.6916 250.041 67.2761 252.674 67.3451Z" fill="#FFCCD0"/>
<path d="M300.277 38.9875C299.863 39.1328 298.688 40.9392 297.726 42.5218C296.946 43.8133 296.304 44.9584 296.304 44.9584L290.72 37.3346C291.217 36.8107 291.675 36.2508 292.09 35.6594C292.546 34.9883 292.894 34.2623 292.731 33.7995C292.349 32.7129 291.556 22.6981 294.598 25.5888C297.639 28.4795 301.058 38.7128 300.277 38.9875Z" fill="#FFCCD0"/>
<path opacity="0.1" d="M242.304 63.963C240.546 66.6537 237.922 68.6633 234.866 69.6589C231.81 70.6546 228.506 70.5765 225.5 69.4377C225.526 65.1291 222.74 64.0197 222.74 64.0197C222.74 64.0197 235.834 51.3628 238.919 59.3823C239.612 61.1874 240.782 62.7706 242.304 63.963Z" fill="black"/>
<path d="M235.01 69.0825C242.371 66.493 246.24 58.4262 243.65 51.0647C241.061 43.7032 232.994 39.8348 225.632 42.4243C218.271 45.0138 214.402 53.0807 216.992 60.4421C219.581 67.8036 227.648 71.672 235.01 69.0825Z" fill="#FFCCD0"/>
<path opacity="0.1" d="M252.674 67.3449L252.305 78.2931L237.401 86.5721C237.401 86.5721 217.446 89.1066 223.082 77.7543C223.742 76.4463 224.302 75.0899 224.756 73.697C232.385 82.4215 238.911 79.0488 238.911 79.0488C247.781 73.9086 245.849 67.452 245.056 65.6185C247.458 66.6855 250.046 67.2719 252.674 67.3449Z" fill="black"/>
<path opacity="0.1" d="M297.727 42.5218C296.946 43.8133 296.304 44.9584 296.304 44.9584L290.721 37.3346C291.218 36.8107 291.676 36.2508 292.091 35.6594C293.712 36.7049 296.084 40.0167 297.727 42.5218Z" fill="black"/>
<path opacity="0.1" d="M190.32 144.791C190.32 144.791 189.9 145.919 189.204 147.598C187.382 146.693 184.434 145.125 182.779 143.734C184.127 142.285 185.087 141.172 185.087 141.172L190.32 144.791Z" fill="black"/>
<path d="M299.152 45.7164L294.136 49.4729C294.136 49.4729 287.402 56.5823 286.924 58.9742C286.447 61.3661 269.384 74.3794 269.384 74.3794C270.796 76.5199 268.027 87.7875 268.027 87.7875C268.027 87.7875 270.134 96.0213 269.146 100.724C268.274 104.843 272.849 112.886 274.013 114.849C274.171 115.128 274.268 115.284 274.268 115.284C274.268 115.284 227.901 135.026 225.984 133.323C225.886 133.234 225.803 133.13 225.736 133.016C224.167 130.628 225.154 121.014 225.953 119.349C226.787 117.603 221.859 109.442 221.859 109.442C221.859 109.442 212.871 121.179 212.115 125.405C211.359 129.632 193.778 144.921 193.778 144.921L191.054 147.737C191.054 147.737 181.614 143.406 181.816 141.352C182.017 139.299 187.261 134.975 187.261 134.975C187.261 134.975 196.555 120.887 197.302 119.96C197.839 119.148 198.236 118.25 198.476 117.305L199.362 116.064C199.362 116.064 199.898 114.947 201.797 113.23C203.695 111.513 206.628 102.955 206.628 102.955C206.628 102.955 210.079 95.1434 209.798 92.0894C209.668 89.9439 209.849 87.7909 210.335 85.6973C212.769 84.3709 214.807 82.4235 216.243 80.0533C218.759 76.025 224.623 73.9529 224.702 73.9253C232.421 82.9614 239.072 79.5492 239.072 79.5492C249.527 73.4991 244.973 65.6104 244.973 65.6104C244.973 65.6104 251.317 58.2207 253.119 57.7213C254.921 57.222 263.385 54.6346 265.753 54.9904C268.121 55.3461 272.939 51.4087 272.939 51.4087C272.939 51.4087 275.045 48.0258 278.244 46.2415C281.442 44.4571 286.412 40.2013 286.412 40.2013C286.412 40.2013 288.384 35.682 290.706 35.5245C293.028 35.3671 299.152 45.7164 299.152 45.7164Z" fill="#F0D473"/>
<path opacity="0.1" d="M274.29 115.295C274.29 115.295 227.923 135.036 226.006 133.334C225.908 133.244 225.825 133.14 225.758 133.026C225.78 132.97 225.808 132.917 225.841 132.867L233.737 130.92C233.737 130.92 235.2 124.031 235.481 120.236C235.481 120.236 237.423 109.524 236.392 106.59C236.392 106.59 258.889 98.1473 261.719 95.3038C261.719 95.3038 269.473 115.327 271.728 115.839L274.027 114.863C274.193 115.138 274.29 115.295 274.29 115.295Z" fill="black"/>
<path opacity="0.1" d="M263.98 198.402C263.752 199.457 264.202 201.476 264.677 203.143C262.014 203.927 257.608 204.033 257.608 204.033C257.036 202.942 256.295 201.949 255.412 201.09C255.887 199.707 256.302 198.828 256.302 198.828C256.302 198.828 264.406 196.404 263.98 198.402Z" fill="black"/>
<path opacity="0.1" d="M297.473 222.645C294.581 223.662 289.507 225.262 286.183 225.224C285.987 223.663 285.877 222.546 285.877 222.546L296.261 220.137C296.261 220.137 296.795 221.166 297.473 222.645Z" fill="black"/>
<path d="M283.568 133.408C284.694 139.871 285.439 146.395 285.798 152.946C285.798 152.946 286.58 162.296 287.543 164.664C288.506 167.032 291.902 182.335 291.902 182.335C291.902 182.335 292.55 190.552 294.218 193.791C295.887 197.03 297.522 216.383 297.522 216.383L299.368 220.878C299.368 220.878 285.602 226.384 282.994 223.471L282.177 219.274L279.468 207.825C279.468 207.825 276.659 194.954 274.917 192.247C273.175 189.539 267.889 178.115 267.889 178.115L272.23 190.838C272.23 190.838 271.524 195.576 269.503 197.341C267.482 199.106 267.673 200.77 265.289 201.86C262.905 202.949 257.277 203.095 257.277 203.095C256.62 201.839 255.733 200.717 254.662 199.79C252.985 198.401 251.935 192.038 251.935 192.038C251.935 192.038 251.469 187.717 249.73 187.275C247.991 186.832 244.351 180.986 244.277 178.899C244.259 178.441 243.909 177.747 243.364 176.899C241.971 174.696 239.317 171.4 237.681 168.122C237.022 166.876 236.569 165.531 236.341 164.14C235.576 158.601 232.302 151.167 232.302 151.167C232.302 151.167 224.602 135.271 226.023 133.318L233.92 131.376C233.92 131.376 235.383 124.487 235.664 120.692C235.664 120.692 237.607 109.979 236.574 107.042C236.574 107.042 259.072 98.6029 261.902 95.7594C261.902 95.7594 269.656 115.783 271.91 116.29L274.3 115.282C274.3 115.282 281.747 123.36 283.568 133.408Z" fill="#44B2BF"/>
<path d="M287.924 181.282C288.048 181.73 288.067 182.2 287.98 182.656C287.821 184.434 287.127 187.306 286.442 188.104C285.324 189.426 277.91 188.598 277.415 187.519C277.132 186.762 276.962 185.968 276.91 185.161C276.841 184.489 276.824 183.966 276.824 183.966C276.824 183.966 286.336 182.867 287.526 181.39L287.55 181.381C287.721 181.126 287.844 181.12 287.924 181.282Z" fill="#FFCCD0"/>
<path opacity="0.1" d="M238.541 94.603C239.053 96.1779 240.356 99.7636 241.25 102.305C241.808 103.891 242.25 105.055 242.25 105.055L236.089 107.222C236.089 107.222 235.653 106.168 234.998 104.504C234.244 102.582 233.201 99.8567 232.211 97.0014C231.957 96.2784 231.701 95.5512 231.47 94.8152C230.77 92.6935 230.149 90.5995 229.742 88.8068C228.146 81.8418 219.123 76.7557 219.123 76.7557C219.987 74.4738 224.203 74.0399 224.203 74.0399C224.203 74.0399 228.59 79.5405 231.92 83.5831C234.111 86.2835 236.026 89.197 237.635 92.2796C237.91 92.7877 238.138 93.32 238.315 93.8698C238.361 94.0256 238.437 94.2681 238.541 94.603Z" fill="black"/>
<path d="M239.012 94.4372C239.524 96.0121 240.827 99.5978 241.721 102.139C242.279 103.725 242.721 104.889 242.721 104.889L236.556 107.057C236.556 107.057 236.124 106.002 235.469 104.338C234.715 102.416 233.672 99.6909 232.682 96.8356C232.427 96.1125 232.172 95.3853 231.941 94.6494C231.241 92.5277 230.62 90.4337 230.212 88.641C228.617 81.6759 219.59 76.5914 219.59 76.5914C220.458 74.308 224.67 73.8756 224.67 73.8756C224.67 73.8756 229.053 79.3775 232.387 83.4187C234.576 86.1204 236.491 89.0336 238.102 92.1152C238.377 92.6233 238.605 93.1556 238.782 93.7054C238.832 93.8597 238.904 94.1037 239.012 94.4372Z" fill="#44B2BF"/>
<path opacity="0.1" d="M263.061 81.3115C263.148 81.9168 263.372 82.8827 263.647 84.0072C264.195 86.2796 264.958 89.201 265.236 91.1649C265.381 92.2375 265.373 93.0203 265.108 93.2574L263.801 94.3719L262.335 95.6165L260.236 96.7496L260.297 95.6044C260.342 94.8875 260.398 93.8975 260.451 92.848C260.575 90.455 260.668 87.7342 260.509 87.0844C260.44 86.7973 260.311 86.1276 260.127 85.2455C259.967 84.4752 259.761 83.5449 259.507 82.5614C258.829 79.8797 257.812 76.8059 256.441 75.5195C253.983 73.2176 246.771 63.8683 246.771 63.8683C246.779 63.0089 247.11 62.1839 247.697 61.5567C248.285 60.9296 249.087 60.5459 249.944 60.4817C249.944 60.4817 256.817 69.8434 257.367 71.2376C257.918 72.6318 262.705 78.7948 263.061 81.3115Z" fill="black"/>
<path d="M262.59 81.4773C262.678 82.0826 262.901 83.0485 263.176 84.173C263.729 86.444 264.492 89.3654 264.765 91.3307C264.91 92.4033 264.903 93.1861 264.638 93.4232L263.364 94.5261C262.849 94.9909 262.403 95.5262 262.038 96.116L259.721 97.358C259.721 97.358 259.831 96.4558 259.872 95.7542C259.913 95.0526 259.973 94.0473 260.026 92.9978C260.15 90.6048 260.247 87.8825 260.083 87.2342C260.015 86.9472 259.886 86.2774 259.701 85.3953C259.542 84.625 259.335 83.6947 259.086 82.7098C258.408 80.028 257.387 76.9557 256.015 75.6693C253.561 73.3659 246.345 64.0182 246.345 64.0182C246.354 63.1587 246.684 62.3337 247.272 61.7066C247.86 61.0794 248.661 60.6957 249.518 60.6315C249.518 60.6315 256.391 69.9932 256.946 71.386C257.501 72.7787 262.234 78.9606 262.59 81.4773Z" fill="#44B2BF"/>
<path d="M238.8 93.7315C238.844 93.8555 238.903 94.1039 239.011 94.4373L232.682 96.8357C232.427 96.1127 232.171 95.3855 231.94 94.6495L238.12 92.1414C238.395 92.6495 238.623 93.1817 238.8 93.7315Z" fill="white"/>
<path d="M242.725 104.887L236.556 107.057C236.556 107.057 236.125 106.002 235.47 104.338L241.725 102.138C242.3 103.718 242.725 104.887 242.725 104.887Z" fill="white"/>
<path d="M262.59 81.4772C262.678 82.0825 262.901 83.0485 263.176 84.173L259.685 85.4011C259.525 84.6308 259.319 83.7005 259.07 82.7155L262.59 81.4772Z" fill="white"/>
<path d="M264.748 91.3365C264.893 92.409 264.886 93.1918 264.621 93.4289L263.347 94.5318L259.855 95.76C259.9 95.043 259.956 94.053 260.009 93.0035L264.748 91.3365Z" fill="white"/>
<path opacity="0.05" d="M169.093 134.485C169.093 134.485 165.975 139.918 164.647 140.617C163.319 141.316 169.093 134.485 169.093 134.485Z" fill="black"/>
<path opacity="0.1" d="M243.697 143.58C242.905 143.203 263.05 136.772 267.349 133.867C267.349 133.867 270.981 136.522 266.673 138.966C262.365 141.41 242.423 149.818 242.423 149.818C242.423 149.818 247.866 145.586 243.697 143.58Z" fill="black"/>
<path opacity="0.1" d="M247.053 170.16C246.762 171.655 245.019 174.45 243.378 176.871C241.985 174.668 239.331 171.372 237.695 168.094L241.288 164.555C241.147 164.604 247.626 167.182 247.053 170.16Z" fill="black"/>
<path opacity="0.1" d="M203.726 114.636C203.726 114.636 216.295 107.735 218.799 101.719C218.799 101.719 220 110.096 203.726 114.636Z" fill="black"/>
<path opacity="0.1" d="M203.127 123.613C203.127 123.613 205.484 123.712 208.689 121.656C211.893 119.6 203.127 123.613 203.127 123.613Z" fill="black"/>
<path opacity="0.1" d="M232.151 112.303C232.151 112.303 226.861 121.193 229.171 121.927C231.481 122.66 232.151 112.303 232.151 112.303Z" fill="black"/>
<path opacity="0.1" d="M228.078 100.721C228.078 100.721 221.55 102.873 224.327 105.555C227.105 108.237 228.078 100.721 228.078 100.721Z" fill="black"/>
<path opacity="0.1" d="M225.28 53.7753C225.67 53.5893 226.016 53.3219 226.295 52.9911C227.67 51.6657 229.444 50.831 231.342 50.6167C234.065 50.3182 236.776 51.3332 239.516 51.2839C241.095 51.2578 242.974 50.555 243.209 48.9913C243.413 47.6054 242.193 46.4606 241.086 45.5964C239.15 44.0533 237.066 42.4697 234.609 42.0712C233.219 41.9104 231.812 41.9621 230.438 42.2245C227.639 42.6377 224.817 43.1941 222.291 44.4728C220.321 45.4722 214.827 48.9553 216.887 51.8013C217.918 53.2263 219.5 52.4189 220.934 52.5227C222.299 52.6276 223.973 54.272 225.28 53.7753Z" fill="black"/>
<path d="M224.95 52.8373C225.338 52.6477 225.683 52.3808 225.965 52.0531C227.338 50.7257 229.113 49.8908 231.012 49.6787C233.735 49.3802 236.444 50.3911 239.186 50.3459C240.765 50.3198 242.644 49.617 242.879 48.0533C243.082 46.6633 241.863 45.5226 240.756 44.6584C238.82 43.1153 236.736 41.5318 234.279 41.1332C232.889 40.9702 231.482 41.0219 230.108 41.2865C227.309 41.6997 224.487 42.2561 221.959 43.5306C219.989 44.53 214.496 48.0132 216.557 50.8633C217.588 52.2883 219.169 51.4768 220.604 51.5847C221.968 51.6855 223.639 53.3216 224.95 52.8373Z" fill="#663D5C"/>
<path opacity="0.1" d="M238.814 42.6489L213.622 48.7247C213.622 48.7247 213.607 48.4049 213.567 47.8155C218.194 44.6694 229.884 37.6043 237.724 40.5946L238.814 42.6489Z" fill="black"/>
<path d="M211.754 49.7484C211.754 49.7484 231.445 34.6083 240.757 42.8285C240.747 42.7996 229.526 48.7016 211.754 49.7484Z" fill="#C4F1F4"/>
<path opacity="0.1" d="M266.052 170.502C265.89 170.668 265.669 170.763 265.437 170.767C265.204 170.77 264.98 170.681 264.814 170.519C264.495 170.176 264.279 169.75 264.191 169.29L263.614 167.292C262.734 164.249 261.843 161.164 261.769 157.996C261.755 154.622 262.484 151.287 263.904 148.228" fill="black"/>
<path opacity="0.1" d="M241.862 112.518C241.862 112.518 252 105.701 254.987 105.784C257.973 105.866 257.636 107.744 255.948 108.515C254.259 109.285 241.862 112.518 241.862 112.518Z" fill="black"/>
<path opacity="0.1" d="M241.321 121.395C244.406 122.246 264.346 115.232 264.346 115.232L241.321 121.395Z" fill="black"/>
<path opacity="0.1" d="M242.535 47.1158C242.306 48.6822 240.421 49.3823 238.842 49.4084C236.097 49.4454 233.396 48.4454 230.668 48.7412C228.77 48.9555 226.996 49.7902 225.621 51.1157C225.343 51.447 224.996 51.7144 224.606 51.8998C223.295 52.3841 221.625 50.7521 220.263 50.6416C218.832 50.5323 217.257 51.3367 216.214 49.916C216.174 49.8618 216.137 49.805 216.103 49.7461C216.15 50.1495 216.302 50.5333 216.546 50.8581C217.576 52.2831 219.157 51.4716 220.593 51.5795C221.952 51.6818 223.618 53.3014 224.936 52.8377C225.324 52.6487 225.67 52.3818 225.95 52.0536C227.324 50.7262 229.099 49.8912 230.998 49.6791C233.721 49.3807 236.43 50.3915 239.172 50.3463C240.75 50.3161 242.63 49.6174 242.865 48.0537C242.934 47.5233 242.818 46.9853 242.538 46.5298C242.566 46.7242 242.565 46.9217 242.535 47.1158Z" fill="black"/>
<path opacity="0.1" d="M287.924 181.282C288.048 181.73 288.067 182.2 287.98 182.655L276.892 185.163C276.823 184.491 276.806 183.967 276.806 183.967C276.806 183.967 286.318 182.869 287.507 181.392L287.532 181.383L287.924 181.282Z" fill="black"/>
<path d="M276.054 183.071C276.055 183.206 276.409 184.753 276.409 184.753L288.723 181.958L288.287 180.718L276.054 183.071Z" fill="#3DA0AC"/>
<path d="M231.029 484.945L233.531 480.007H236.271L232.293 487.332V492H229.766V487.414L225.788 480.007H228.544L231.029 484.945ZM239.577 487.398C239.577 488.306 239.725 488.992 240.02 489.457C240.321 489.922 240.807 490.154 241.48 490.154C242.147 490.154 242.626 489.925 242.916 489.465C243.211 489 243.359 488.311 243.359 487.398C243.359 486.49 243.211 485.809 242.916 485.355C242.62 484.902 242.136 484.675 241.464 484.675C240.796 484.675 240.315 484.902 240.02 485.355C239.725 485.804 239.577 486.485 239.577 487.398ZM245.918 487.398C245.918 488.891 245.524 490.059 244.737 490.901C243.949 491.743 242.853 492.164 241.447 492.164C240.567 492.164 239.79 491.973 239.118 491.59C238.445 491.202 237.928 490.646 237.567 489.925C237.206 489.203 237.026 488.361 237.026 487.398C237.026 485.9 237.417 484.735 238.199 483.904C238.981 483.072 240.08 482.657 241.496 482.657C242.377 482.657 243.154 482.848 243.826 483.231C244.499 483.614 245.016 484.163 245.377 484.88C245.738 485.596 245.918 486.436 245.918 487.398ZM254.482 492L254.146 490.827H254.014C253.746 491.254 253.366 491.584 252.874 491.82C252.382 492.049 251.821 492.164 251.193 492.164C250.115 492.164 249.303 491.877 248.756 491.303C248.209 490.723 247.936 489.892 247.936 488.809V482.829H250.438V488.186C250.438 488.847 250.555 489.345 250.791 489.679C251.026 490.007 251.4 490.171 251.914 490.171C252.614 490.171 253.12 489.938 253.432 489.473C253.744 489.003 253.9 488.227 253.9 487.144V482.829H256.402V492H254.482ZM264.145 482.657C264.484 482.657 264.766 482.681 264.99 482.73L264.802 485.077C264.599 485.022 264.353 484.995 264.063 484.995C263.265 484.995 262.641 485.2 262.193 485.61C261.75 486.02 261.529 486.594 261.529 487.332V492H259.027V482.829H260.921L261.291 484.371H261.414C261.698 483.857 262.081 483.444 262.562 483.132C263.049 482.815 263.577 482.657 264.145 482.657ZM276.138 482.657C276.477 482.657 276.759 482.681 276.983 482.73L276.795 485.077C276.592 485.022 276.346 484.995 276.056 484.995C275.258 484.995 274.634 485.2 274.186 485.61C273.743 486.02 273.521 486.594 273.521 487.332V492H271.02V482.829H272.914L273.284 484.371H273.407C273.691 483.857 274.074 483.444 274.555 483.132C275.042 482.815 275.57 482.657 276.138 482.657ZM285.145 492L284.809 490.827H284.678C284.41 491.254 284.03 491.584 283.538 491.82C283.045 492.049 282.485 492.164 281.856 492.164C280.779 492.164 279.966 491.877 279.42 491.303C278.873 490.723 278.599 489.892 278.599 488.809V482.829H281.101V488.186C281.101 488.847 281.219 489.345 281.454 489.679C281.689 490.007 282.064 490.171 282.578 490.171C283.278 490.171 283.784 489.938 284.095 489.473C284.407 489.003 284.563 488.227 284.563 487.144V482.829H287.065V492H285.145ZM298.155 492H295.654V486.643C295.654 485.982 295.536 485.487 295.301 485.159C295.066 484.825 294.691 484.658 294.177 484.658C293.477 484.658 292.971 484.893 292.659 485.364C292.348 485.829 292.192 486.602 292.192 487.685V492H289.69V482.829H291.601L291.938 484.002H292.077C292.356 483.559 292.739 483.225 293.225 483.001C293.718 482.771 294.275 482.657 294.899 482.657C295.965 482.657 296.775 482.946 297.327 483.526C297.879 484.1 298.155 484.932 298.155 486.02V492ZM309.197 492H306.695V486.643C306.695 485.982 306.577 485.487 306.342 485.159C306.107 484.825 305.732 484.658 305.218 484.658C304.518 484.658 304.013 484.893 303.701 485.364C303.389 485.829 303.233 486.602 303.233 487.685V492H300.731V482.829H302.643L302.979 484.002H303.118C303.397 483.559 303.78 483.225 304.267 483.001C304.759 482.771 305.317 482.657 305.94 482.657C307.007 482.657 307.816 482.946 308.368 483.526C308.921 484.1 309.197 484.932 309.197 486.02V492ZM311.666 480.458C311.666 479.643 312.12 479.236 313.028 479.236C313.936 479.236 314.389 479.643 314.389 480.458C314.389 480.846 314.275 481.15 314.045 481.369C313.821 481.582 313.482 481.689 313.028 481.689C312.12 481.689 311.666 481.279 311.666 480.458ZM314.275 492H311.773V482.829H314.275V492ZM325.373 492H322.871V486.643C322.871 485.982 322.754 485.487 322.519 485.159C322.284 484.825 321.909 484.658 321.395 484.658C320.695 484.658 320.189 484.893 319.877 485.364C319.566 485.829 319.41 486.602 319.41 487.685V492H316.908V482.829H318.819L319.155 484.002H319.295C319.574 483.559 319.957 483.225 320.443 483.001C320.936 482.771 321.493 482.657 322.117 482.657C323.183 482.657 323.993 482.946 324.545 483.526C325.097 484.1 325.373 484.932 325.373 486.02V492ZM335.931 482.829V484.1L334.495 484.47C334.758 484.88 334.889 485.339 334.889 485.848C334.889 486.832 334.545 487.6 333.855 488.153C333.172 488.7 332.22 488.973 331.001 488.973L330.55 488.948L330.18 488.907C329.923 489.104 329.795 489.323 329.795 489.564C329.795 489.925 330.254 490.105 331.173 490.105H332.732C333.738 490.105 334.504 490.321 335.029 490.753C335.559 491.185 335.824 491.82 335.824 492.656C335.824 493.728 335.376 494.559 334.479 495.15C333.587 495.741 332.305 496.036 330.632 496.036C329.352 496.036 328.373 495.812 327.695 495.363C327.022 494.92 326.686 494.297 326.686 493.493C326.686 492.941 326.858 492.479 327.203 492.107C327.547 491.735 328.053 491.47 328.72 491.311C328.463 491.202 328.239 491.024 328.048 490.778C327.856 490.526 327.761 490.261 327.761 489.982C327.761 489.632 327.862 489.342 328.064 489.113C328.266 488.877 328.559 488.648 328.942 488.423C328.461 488.216 328.078 487.882 327.793 487.423C327.514 486.963 327.375 486.422 327.375 485.798C327.375 484.798 327.7 484.024 328.351 483.477C329.002 482.93 329.932 482.657 331.14 482.657C331.397 482.657 331.701 482.681 332.051 482.73C332.406 482.774 332.633 482.807 332.732 482.829H335.931ZM328.852 493.296C328.852 493.641 329.016 493.911 329.344 494.108C329.677 494.305 330.142 494.404 330.738 494.404C331.635 494.404 332.338 494.28 332.846 494.034C333.355 493.788 333.609 493.452 333.609 493.025C333.609 492.681 333.459 492.443 333.158 492.312C332.857 492.18 332.393 492.115 331.764 492.115H330.468C330.008 492.115 329.623 492.221 329.311 492.435C329.005 492.654 328.852 492.941 328.852 493.296ZM329.762 485.831C329.762 486.329 329.874 486.723 330.098 487.013C330.328 487.302 330.675 487.447 331.14 487.447C331.611 487.447 331.955 487.302 332.174 487.013C332.393 486.723 332.502 486.329 332.502 485.831C332.502 484.727 332.048 484.174 331.14 484.174C330.221 484.174 329.762 484.727 329.762 485.831ZM346.915 482.657C347.998 482.657 348.845 483.08 349.458 483.928C350.07 484.77 350.377 485.927 350.377 487.398C350.377 488.913 350.059 490.086 349.425 490.917C348.796 491.748 347.937 492.164 346.849 492.164C345.772 492.164 344.927 491.773 344.314 490.991H344.142L343.724 492H341.812V479.236H344.314V482.205C344.314 482.583 344.282 483.187 344.216 484.018H344.314C344.9 483.111 345.766 482.657 346.915 482.657ZM346.111 484.658C345.493 484.658 345.042 484.85 344.757 485.232C344.473 485.61 344.325 486.236 344.314 487.111V487.382C344.314 488.366 344.459 489.071 344.749 489.498C345.045 489.925 345.509 490.138 346.144 490.138C346.658 490.138 347.065 489.903 347.366 489.432C347.672 488.957 347.825 488.268 347.825 487.365C347.825 486.463 347.672 485.788 347.366 485.339C347.06 484.885 346.641 484.658 346.111 484.658ZM358.941 492L358.604 490.827H358.473C358.205 491.254 357.825 491.584 357.333 491.82C356.841 492.049 356.28 492.164 355.651 492.164C354.574 492.164 353.762 491.877 353.215 491.303C352.668 490.723 352.395 489.892 352.395 488.809V482.829H354.896V488.186C354.896 488.847 355.014 489.345 355.249 489.679C355.484 490.007 355.859 490.171 356.373 490.171C357.073 490.171 357.579 489.938 357.891 489.473C358.202 489.003 358.358 488.227 358.358 487.144V482.829H360.86V492H358.941ZM366.389 492.164C365.312 492.164 364.464 491.746 363.846 490.909C363.234 490.072 362.927 488.913 362.927 487.431C362.927 485.927 363.239 484.757 363.862 483.92C364.491 483.078 365.355 482.657 366.455 482.657C367.609 482.657 368.489 483.105 369.096 484.002H369.178C369.052 483.318 368.989 482.709 368.989 482.173V479.236H371.5V492H369.58L369.096 490.811H368.989C368.421 491.713 367.554 492.164 366.389 492.164ZM367.267 490.171C367.907 490.171 368.374 489.985 368.67 489.613C368.97 489.241 369.134 488.609 369.162 487.718V487.447C369.162 486.463 369.009 485.757 368.702 485.331C368.402 484.904 367.909 484.691 367.226 484.691C366.668 484.691 366.233 484.929 365.921 485.405C365.615 485.875 365.462 486.561 365.462 487.464C365.462 488.366 365.618 489.044 365.93 489.498C366.241 489.946 366.687 490.171 367.267 490.171ZM377.02 492.164C375.943 492.164 375.095 491.746 374.477 490.909C373.865 490.072 373.559 488.913 373.559 487.431C373.559 485.927 373.87 484.757 374.494 483.92C375.123 483.078 375.987 482.657 377.086 482.657C378.24 482.657 379.12 483.105 379.727 484.002H379.809C379.684 483.318 379.621 482.709 379.621 482.173V479.236H382.131V492H380.211L379.727 490.811H379.621C379.052 491.713 378.185 492.164 377.02 492.164ZM377.898 490.171C378.538 490.171 379.005 489.985 379.301 489.613C379.602 489.241 379.766 488.609 379.793 487.718V487.447C379.793 486.463 379.64 485.757 379.334 485.331C379.033 484.904 378.541 484.691 377.857 484.691C377.299 484.691 376.864 484.929 376.553 485.405C376.246 485.875 376.093 486.561 376.093 487.464C376.093 488.366 376.249 489.044 376.561 489.498C376.873 489.946 377.318 490.171 377.898 490.171ZM383.435 482.829H386.175L387.906 487.989C388.054 488.437 388.155 488.968 388.209 489.58H388.259C388.319 489.017 388.436 488.486 388.611 487.989L390.309 482.829H392.992L389.112 493.173C388.756 494.13 388.248 494.846 387.586 495.322C386.93 495.798 386.161 496.036 385.281 496.036C384.849 496.036 384.425 495.989 384.009 495.896V493.911C384.31 493.982 384.638 494.018 384.994 494.018C385.437 494.018 385.822 493.881 386.15 493.608C386.484 493.34 386.744 492.932 386.93 492.386L387.077 491.934L383.435 482.829Z" fill="#424B5A"/>
<defs>
<linearGradient id="paint0_linear" x1="26.49" y1="110.075" x2="190.288" y2="84.692" gradientUnits="userSpaceOnUse">
<stop stop-color="#F0D473"/>
<stop offset="1" stop-color="#FF8E59"/>
</linearGradient>
<linearGradient id="paint1_linear" x1="232.49" y1="460.075" x2="396.287" y2="434.692" gradientUnits="userSpaceOnUse">
<stop stop-color="#F0D473"/>
<stop offset="1" stop-color="#FF8E59"/>
</linearGradient>
</defs>
</svg>
