<svg width="68" height="17" viewBox="0 0 68 17" fill="none" xmlns="http://www.w3.org/2000/svg">
<path fill-rule="evenodd" clip-rule="evenodd" d="M42.6264 4.50385C42.6264 3.76326 43.2268 3.16289 43.9674 3.16289H63.7135C64.4541 3.16289 65.0544 3.76325 65.0544 4.50385V13.24C65.0544 13.9806 64.4541 14.581 63.7135 14.581H43.9674C43.2268 14.581 42.6264 13.9806 42.6264 13.24V4.50385ZM65.5528 10.9752V6.76859H66.1541C66.6478 6.76859 67.048 7.16883 67.048 7.66256V10.0813C67.048 10.575 66.6478 10.9752 66.1541 10.9752H65.5528ZM44.0188 3.76384C43.5251 3.76384 43.1248 4.16409 43.1248 4.65781V13.086C43.1248 13.5798 43.5251 13.98 44.0188 13.98H63.6621C64.1558 13.98 64.556 13.5798 64.556 13.086V4.65781C64.556 4.16409 64.1558 3.76384 63.6621 3.76384H44.0188ZM43.6232 4.81177C43.6232 4.5649 43.8233 4.36478 44.0702 4.36478H63.6107C63.8575 4.36478 64.0576 4.5649 64.0576 4.81177V12.9321C64.0576 13.1789 63.8575 13.3791 63.6106 13.3791H44.0702C43.8233 13.3791 43.6232 13.1789 43.6232 12.9321V4.81177Z" fill="#424B5A"/>
<path fill-rule="evenodd" clip-rule="evenodd" d="M31.1331 1.60968C34.6148 1.60968 37.756 3.31221 39.9798 6.04336L38.5016 7.77492C36.6569 5.48425 34.038 4.05385 31.1331 4.05385C28.2469 4.05385 25.6431 5.46589 23.8003 7.73078L22.3203 6.00203C24.542 3.29504 27.6691 1.60968 31.1331 1.60968ZM37.0232 9.50688C35.5578 7.65651 33.4613 6.49802 31.1331 6.49802C28.8248 6.49802 26.7441 7.63688 25.2806 9.45979L26.7613 11.1893C27.8452 9.80814 29.4026 8.94219 31.1331 8.94219C32.8846 8.94219 34.4586 9.82921 35.544 11.2396L37.0232 9.50688ZM34.063 12.9745C33.3593 12.0031 32.3078 11.3863 31.1331 11.3863C29.9804 11.3863 28.9464 11.9801 28.2432 12.9201L31.1806 16.3511L34.063 12.9745Z" fill="#424B5A"/>
<rect y="9.48869" width="3.27895" height="6.32581" rx="1.63947" fill="#424B5A"/>
<rect x="5.24634" y="6.32579" width="3.27895" height="9.48871" rx="1.63947" fill="#424B5A"/>
<rect x="10.4926" y="3.16289" width="3.27895" height="12.6516" rx="1.63947" fill="#424B5A"/>
<rect x="15.739" y="-1.52588e-05" width="3.27895" height="15.8145" rx="1.63947" fill="#424B5A"/>
</svg>
