<svg width="50" height="50" viewBox="0 0 50 50" fill="none" xmlns="http://www.w3.org/2000/svg">
<path d="M7.29492 43H1.72363V33.0059H7.29492V34.0381H2.88574V37.2578H7.02832V38.2832H2.88574V41.9609H7.29492V43ZM11.1504 39.165L8.5459 35.5078H9.83789L11.8135 38.3789L13.7822 35.5078H15.0605L12.4561 39.165L15.1973 43H13.9121L11.8135 39.9648L9.69434 43H8.40918L11.1504 39.165ZM20.1738 43.1367C19.6862 43.1367 19.2396 43.0479 18.834 42.8701C18.4329 42.6878 18.0957 42.4098 17.8223 42.0361H17.7402C17.7949 42.4736 17.8223 42.8883 17.8223 43.2803V46.3633H16.6875V35.5078H17.6104L17.7676 36.5332H17.8223C18.1139 36.123 18.4535 35.8268 18.8408 35.6445C19.2282 35.4622 19.6725 35.3711 20.1738 35.3711C21.1673 35.3711 21.9329 35.7106 22.4707 36.3896C23.013 37.0687 23.2842 38.0212 23.2842 39.2471C23.2842 40.4775 23.0085 41.4346 22.457 42.1182C21.9102 42.7972 21.1491 43.1367 20.1738 43.1367ZM20.0098 36.335C19.2441 36.335 18.6904 36.5469 18.3486 36.9707C18.0068 37.3945 17.8314 38.069 17.8223 38.9941V39.2471C17.8223 40.2998 17.9977 41.054 18.3486 41.5098C18.6995 41.9609 19.2624 42.1865 20.0371 42.1865C20.6842 42.1865 21.1901 41.9245 21.5547 41.4004C21.9238 40.8763 22.1084 40.154 22.1084 39.2334C22.1084 38.2992 21.9238 37.5837 21.5547 37.0869C21.1901 36.5856 20.6751 36.335 20.0098 36.335ZM26.4082 43H25.2734V32.3633H26.4082V43ZM35.2812 39.2471C35.2812 40.4684 34.9736 41.4232 34.3584 42.1113C33.7432 42.7949 32.8932 43.1367 31.8086 43.1367C31.1387 43.1367 30.5439 42.9795 30.0244 42.665C29.5049 42.3506 29.1038 41.8994 28.8213 41.3115C28.5387 40.7236 28.3975 40.0355 28.3975 39.2471C28.3975 38.0257 28.7028 37.0755 29.3135 36.3965C29.9242 35.7129 30.7718 35.3711 31.8564 35.3711C32.9046 35.3711 33.7363 35.7197 34.3516 36.417C34.9714 37.1143 35.2812 38.0576 35.2812 39.2471ZM29.5732 39.2471C29.5732 40.2041 29.7646 40.9333 30.1475 41.4346C30.5303 41.9359 31.0931 42.1865 31.8359 42.1865C32.5788 42.1865 33.1416 41.9382 33.5244 41.4414C33.9118 40.9401 34.1055 40.2087 34.1055 39.2471C34.1055 38.2946 33.9118 37.5723 33.5244 37.0801C33.1416 36.5833 32.5742 36.335 31.8223 36.335C31.0794 36.335 30.5189 36.5788 30.1406 37.0664C29.7624 37.554 29.5732 38.2809 29.5732 39.2471ZM40.6953 35.3711C41.028 35.3711 41.3265 35.3984 41.5908 35.4531L41.4336 36.5059C41.1237 36.4375 40.8503 36.4033 40.6133 36.4033C40.0072 36.4033 39.4876 36.6494 39.0547 37.1416C38.6263 37.6338 38.4121 38.2467 38.4121 38.9805V43H37.2773V35.5078H38.2139L38.3438 36.8955H38.3984C38.6764 36.4079 39.0114 36.0319 39.4033 35.7676C39.7952 35.5033 40.2259 35.3711 40.6953 35.3711ZM46.1572 43.1367C45.0498 43.1367 44.1748 42.7995 43.5322 42.125C42.8942 41.4505 42.5752 40.514 42.5752 39.3154C42.5752 38.1077 42.8714 37.1484 43.4639 36.4375C44.0609 35.7266 44.8607 35.3711 45.8633 35.3711C46.8021 35.3711 47.5449 35.681 48.0918 36.3008C48.6387 36.916 48.9121 37.7295 48.9121 38.7412V39.459H43.751C43.7738 40.3385 43.9948 41.0062 44.4141 41.4619C44.8379 41.9176 45.4326 42.1455 46.1982 42.1455C47.0049 42.1455 47.8024 41.9769 48.5908 41.6396V42.6514C48.1898 42.8245 47.8092 42.9476 47.4492 43.0205C47.0938 43.098 46.6631 43.1367 46.1572 43.1367ZM45.8496 36.3213C45.248 36.3213 44.7673 36.5173 44.4072 36.9092C44.0518 37.3011 43.8421 37.8434 43.7783 38.5361H47.6953C47.6953 37.8206 47.5358 37.2738 47.2168 36.8955C46.8978 36.5127 46.4421 36.3213 45.8496 36.3213Z" fill="#424B5A"/>
<path d="M33.2595 26.8569C33.0781 26.8569 32.8966 26.7963 32.7473 26.6752C32.5304 26.4991 27.4341 22.3101 27.4341 17.7128C27.4341 14.5006 30.0474 11.8873 33.2595 11.8873C36.4717 11.8873 39.085 14.5006 39.085 17.7128C39.085 18.1617 38.721 18.5255 38.2722 18.5255C37.8234 18.5255 37.4594 18.1616 37.4594 17.7128C37.4594 15.397 35.5754 13.5129 33.2596 13.5129C30.9438 13.5129 29.0597 15.397 29.0597 17.7128C29.0597 20.7724 32.0344 23.8313 33.257 24.9592C34.0195 24.2495 35.4674 22.78 36.4493 21.0326C36.6693 20.6412 37.1648 20.5023 37.5561 20.7222C37.9474 20.9422 38.0864 21.4377 37.8665 21.829C36.3322 24.5592 33.8787 26.5876 33.7749 26.6726C33.625 26.7954 33.4423 26.8569 33.2595 26.8569Z" fill="#424B5A"/>
<path d="M19.4616 26.8516C19.3957 26.8516 19.3292 26.8494 19.2635 26.845C18.8366 26.8165 18.5049 26.4619 18.5049 26.034V6.14414C18.5049 5.91916 18.5981 5.70426 18.7625 5.55054C18.9267 5.39683 19.1473 5.31811 19.3718 5.33312C19.6939 5.35514 20.007 5.2619 20.2633 5.06963L26.2368 0.589411C26.715 0.230709 27.2848 0.0271454 27.8843 0.000686501C28.1062 -0.0085166 28.3219 0.0721201 28.482 0.22545C28.6422 0.378836 28.7328 0.590945 28.7328 0.812696V20.7025C28.7328 21.1375 28.3904 21.4954 27.9558 21.5144C27.6846 21.5264 27.4275 21.6181 27.2123 21.7796L21.2388 26.2598C20.73 26.6415 20.0988 26.8516 19.4616 26.8516ZM20.1305 6.8845V25.0473C20.1762 25.0209 20.2206 24.9915 20.2633 24.9594L26.2368 20.4792C26.5023 20.2801 26.796 20.1287 27.1072 20.029V1.96856L21.2387 6.37006C20.91 6.61668 20.5301 6.79159 20.1305 6.8845Z" fill="#424B5A"/>
<path d="M33.2222 21.3135C31.648 21.3135 30.3672 20.0328 30.3672 18.4585C30.3672 16.8842 31.648 15.6035 33.2222 15.6035C34.7965 15.6035 36.0773 16.8842 36.0773 18.4585C36.0773 20.0327 34.7965 21.3135 33.2222 21.3135ZM33.2222 17.229C32.5443 17.229 31.9928 17.7806 31.9928 18.4585C31.9928 19.1363 32.5443 19.6878 33.2222 19.6878C33.9002 19.6878 34.4517 19.1363 34.4517 18.4585C34.4517 17.7806 33.9002 17.229 33.2222 17.229Z" fill="#424B5A"/>
<path d="M19.3263 26.8588C18.9757 26.8588 18.6226 26.7961 18.2824 26.6686L12.9222 24.6586C11.7726 24.2274 11 23.1127 11 21.8846V6.58673C11 5.61525 11.4766 4.70502 12.2751 4.15169C13.0735 3.5984 14.0933 3.47164 15.0029 3.81276L18.8532 5.25666C19.2827 5.41777 19.7581 5.34957 20.1249 5.07435L26.0984 0.594138C26.9111 -0.0155129 27.9646 -0.166652 28.9161 0.190242L34.2763 2.2003C35.4261 2.63159 36.1986 3.74631 36.1986 4.97427V9.60612C36.1986 10.055 35.8347 10.4189 35.3859 10.4189C34.9371 10.4189 34.5731 10.055 34.5731 9.60612V4.97432C34.5731 4.42016 34.2244 3.91706 33.7054 3.72248L28.3453 1.71242C27.9159 1.55132 27.4405 1.61963 27.0737 1.89468L21.1002 6.37495C20.2871 6.98471 19.2339 7.13574 18.2822 6.77884L14.4321 5.33494C14.0157 5.17871 13.5668 5.23442 13.201 5.48789C12.8354 5.7413 12.6256 6.14186 12.6256 6.58678V21.8845C12.6256 22.4388 12.9742 22.9418 13.4931 23.1364L18.8532 25.1464C19.2827 25.3075 19.7581 25.2393 20.1249 24.9641L26.0984 20.4839C26.9111 19.8743 27.9646 19.7231 28.9161 20.08C29.3365 20.2376 29.5495 20.7061 29.3919 21.1265C29.2344 21.5467 28.7658 21.7597 28.3454 21.6021C27.916 21.4412 27.4406 21.5092 27.0738 21.7844L21.1003 26.2647C20.578 26.6564 19.9563 26.8588 19.3263 26.8588Z" fill="#424B5A"/>
</svg>
