<svg width="43" height="50" viewBox="0 0 43 50" fill="none" xmlns="http://www.w3.org/2000/svg">
<path d="M8.06055 35.918C8.06055 36.9297 7.71419 37.709 7.02148 38.2559C6.33333 38.7982 5.34668 39.0693 4.06152 39.0693H2.88574V43H1.72363V33.0059H4.31445C6.81185 33.0059 8.06055 33.9766 8.06055 35.918ZM2.88574 38.0713H3.93164C4.96159 38.0713 5.70671 37.9049 6.16699 37.5723C6.62728 37.2396 6.85742 36.7064 6.85742 35.9727C6.85742 35.3118 6.64095 34.8197 6.20801 34.4961C5.77507 34.1725 5.10059 34.0107 4.18457 34.0107H2.88574V38.0713ZM13.4062 35.3711C13.7389 35.3711 14.0374 35.3984 14.3018 35.4531L14.1445 36.5059C13.8346 36.4375 13.5612 36.4033 13.3242 36.4033C12.7181 36.4033 12.1986 36.6494 11.7656 37.1416C11.3372 37.6338 11.123 38.2467 11.123 38.9805V43H9.98828V35.5078H10.9248L11.0547 36.8955H11.1094C11.3874 36.4079 11.7223 36.0319 12.1143 35.7676C12.5062 35.5033 12.9368 35.3711 13.4062 35.3711ZM22.1699 39.2471C22.1699 40.4684 21.8623 41.4232 21.2471 42.1113C20.6318 42.7949 19.7819 43.1367 18.6973 43.1367C18.0273 43.1367 17.4326 42.9795 16.9131 42.665C16.3936 42.3506 15.9925 41.8994 15.71 41.3115C15.4274 40.7236 15.2861 40.0355 15.2861 39.2471C15.2861 38.0257 15.5915 37.0755 16.2021 36.3965C16.8128 35.7129 17.6605 35.3711 18.7451 35.3711C19.7933 35.3711 20.625 35.7197 21.2402 36.417C21.86 37.1143 22.1699 38.0576 22.1699 39.2471ZM16.4619 39.2471C16.4619 40.2041 16.6533 40.9333 17.0361 41.4346C17.4189 41.9359 17.9818 42.1865 18.7246 42.1865C19.4674 42.1865 20.0303 41.9382 20.4131 41.4414C20.8005 40.9401 20.9941 40.2087 20.9941 39.2471C20.9941 38.2946 20.8005 37.5723 20.4131 37.0801C20.0303 36.5833 19.4629 36.335 18.7109 36.335C17.9681 36.335 17.4076 36.5788 17.0293 37.0664C16.651 37.554 16.4619 38.2809 16.4619 39.2471ZM27.543 36.3896H25.6357V43H24.501V36.3896H23.1611V35.877L24.501 35.4668V35.0498C24.501 33.2087 25.3053 32.2881 26.9141 32.2881C27.3105 32.2881 27.7754 32.3678 28.3086 32.5273L28.0146 33.4365C27.5771 33.2952 27.2035 33.2246 26.8936 33.2246C26.4652 33.2246 26.1484 33.3682 25.9434 33.6553C25.7383 33.9378 25.6357 34.3936 25.6357 35.0225V35.5078H27.543V36.3896ZM30.0449 43H28.9102V35.5078H30.0449V43ZM28.8145 33.4775C28.8145 33.2178 28.8783 33.0286 29.0059 32.9102C29.1335 32.7871 29.293 32.7256 29.4844 32.7256C29.6667 32.7256 29.8239 32.7871 29.9561 32.9102C30.0882 33.0332 30.1543 33.2223 30.1543 33.4775C30.1543 33.7327 30.0882 33.9242 29.9561 34.0518C29.8239 34.1748 29.6667 34.2363 29.4844 34.2363C29.293 34.2363 29.1335 34.1748 29.0059 34.0518C28.8783 33.9242 28.8145 33.7327 28.8145 33.4775ZM33.5859 43H32.4512V32.3633H33.5859V43ZM39.1572 43.1367C38.0498 43.1367 37.1748 42.7995 36.5322 42.125C35.8942 41.4505 35.5752 40.514 35.5752 39.3154C35.5752 38.1077 35.8714 37.1484 36.4639 36.4375C37.0609 35.7266 37.8607 35.3711 38.8633 35.3711C39.8021 35.3711 40.5449 35.681 41.0918 36.3008C41.6387 36.916 41.9121 37.7295 41.9121 38.7412V39.459H36.751C36.7738 40.3385 36.9948 41.0062 37.4141 41.4619C37.8379 41.9176 38.4326 42.1455 39.1982 42.1455C40.0049 42.1455 40.8024 41.9769 41.5908 41.6396V42.6514C41.1898 42.8245 40.8092 42.9476 40.4492 43.0205C40.0938 43.098 39.6631 43.1367 39.1572 43.1367ZM38.8496 36.3213C38.248 36.3213 37.7673 36.5173 37.4072 36.9092C37.0518 37.3011 36.8421 37.8434 36.7783 38.5361H40.6953C40.6953 37.8206 40.5358 37.2738 40.2168 36.8955C39.8978 36.5127 39.4421 36.3213 38.8496 36.3213Z" fill="#424B5A"/>
<path d="M24.9002 5.8615C24.9002 8.61465 22.6684 10.8465 19.9152 10.8465C17.1621 10.8465 14.9302 8.61465 14.9302 5.8615C14.9302 3.10835 17.1621 0.876486 19.9152 0.876486C22.6684 0.876486 24.9002 3.10835 24.9002 5.8615Z" stroke="#424B5A" stroke-width="1.75297"/>
<path d="M10.128 21.9898C8.04644 11.7185 32.0676 13.088 29.6846 21.9898" stroke="#424B5A" stroke-width="1.75297" stroke-linecap="round" stroke-linejoin="round"/>
</svg>
