<svg width="27" height="51" viewBox="0 0 27 51" fill="none" xmlns="http://www.w3.org/2000/svg">
<path d="M2.60938 39.8438V44H1.44727V34.0059H4.18848C5.41439 34.0059 6.31901 34.2406 6.90234 34.71C7.49023 35.1794 7.78418 35.8857 7.78418 36.8291C7.78418 38.1507 7.11426 39.0439 5.77441 39.5088L8.48828 44H7.11426L4.69434 39.8438H2.60938ZM2.60938 38.8457H4.20215C5.02246 38.8457 5.62402 38.6839 6.00684 38.3604C6.38965 38.0322 6.58105 37.5423 6.58105 36.8906C6.58105 36.2298 6.38509 35.7536 5.99316 35.4619C5.60579 35.1702 4.98145 35.0244 4.12012 35.0244H2.60938V38.8457ZM10.9971 36.5078V41.3682C10.9971 41.9788 11.1361 42.4346 11.4141 42.7354C11.6921 43.0361 12.1273 43.1865 12.7197 43.1865C13.5036 43.1865 14.0755 42.9723 14.4355 42.5439C14.8001 42.1156 14.9824 41.416 14.9824 40.4453V36.5078H16.1172V44H15.1807L15.0166 42.9951H14.9551C14.7227 43.3643 14.3991 43.6468 13.9844 43.8428C13.5742 44.0387 13.1048 44.1367 12.5762 44.1367C11.6647 44.1367 10.9811 43.9202 10.5254 43.4873C10.0742 43.0544 9.84863 42.3617 9.84863 41.4092V36.5078H10.9971ZM23.6572 44V39.1533C23.6572 38.5426 23.5182 38.0869 23.2402 37.7861C22.9622 37.4854 22.527 37.335 21.9346 37.335C21.1507 37.335 20.5765 37.5469 20.2119 37.9707C19.8473 38.3945 19.665 39.0941 19.665 40.0693V44H18.5303V36.5078H19.4531L19.6377 37.5332H19.6924C19.9248 37.1641 20.2507 36.8792 20.6699 36.6787C21.0892 36.4736 21.5563 36.3711 22.0713 36.3711C22.9736 36.3711 23.6527 36.5898 24.1084 37.0273C24.5641 37.4603 24.792 38.1553 24.792 39.1123V44H23.6572Z" fill="#424B5A"/>
<path d="M14.1766 8.23376C13.7361 8.23376 13.3789 7.8766 13.3789 7.43605V4.97773C13.3789 4.53713 13.7361 4.18002 14.1766 4.18002C14.6171 4.18002 14.9743 4.53718 14.9743 4.97773V7.436C14.9743 7.87665 14.6171 8.23376 14.1766 8.23376Z" fill="#424B5A"/>
<path d="M14.1766 27.5618C13.7361 27.5618 13.3789 27.2046 13.3789 26.7641V24.3059C13.3789 23.8653 13.7361 23.5082 14.1766 23.5082C14.6171 23.5082 14.9743 23.8653 14.9743 24.3059V26.7641C14.9743 27.2046 14.6171 27.5618 14.1766 27.5618Z" fill="#424B5A"/>
<path d="M25.313 16.6686H22.369C21.9285 16.6686 21.5713 16.3114 21.5713 15.8709C21.5713 15.4303 21.9285 15.0732 22.369 15.0732H25.313C25.7535 15.0732 26.1107 15.4304 26.1107 15.8709C26.1108 16.3115 25.7536 16.6686 25.313 16.6686Z" fill="#424B5A"/>
<path d="M5.49915 16.6686H3.04088C2.60039 16.6686 2.24316 16.3114 2.24316 15.8709C2.24316 15.4303 2.60039 15.0732 3.04088 15.0732H5.49909C5.93958 15.0732 6.2968 15.4304 6.2968 15.8709C6.2968 16.3115 5.93964 16.6686 5.49915 16.6686Z" fill="#424B5A"/>
<path d="M14.1767 28.0476C7.46243 28.0476 2 22.5851 2 15.8709C2 9.1567 7.46243 3.69427 14.1767 3.69427C17.4058 3.69427 20.4481 4.94535 22.7429 7.21687C23.0528 7.52359 23.059 8.02236 22.7567 8.33664L20.7162 10.4593C20.4108 10.7769 19.9057 10.787 19.5882 10.4816C19.2706 10.1763 19.2607 9.67125 19.566 9.35363L21.0419 7.81825C19.1286 6.18201 16.7194 5.28959 14.1767 5.28959C8.3422 5.28959 3.59542 10.0363 3.59542 15.8707C3.59542 21.7052 8.34214 26.452 14.1767 26.452C20.0112 26.452 24.758 21.7053 24.758 15.8707C24.758 15.4301 25.1152 15.073 25.5557 15.073C25.9962 15.073 26.3534 15.4302 26.3534 15.8707C26.3534 22.5852 20.8909 28.0476 14.1767 28.0476Z" fill="#424B5A"/>
<path d="M6.474 24.3713C6.26977 24.3713 6.06572 24.2935 5.90992 24.1377C5.59839 23.8261 5.59839 23.321 5.90992 23.0094L7.64816 21.2712C7.95975 20.9596 8.46471 20.9596 8.77641 21.2712C9.08795 21.5827 9.08795 22.0878 8.77641 22.3994L7.03818 24.1376C6.88227 24.2935 6.67822 24.3713 6.474 24.3713Z" fill="#424B5A"/>
<path d="M21.8797 24.3713C21.6755 24.3713 21.4714 24.2935 21.3156 24.1377L19.5774 22.3994C19.2659 22.0879 19.2659 21.5828 19.5774 21.2712C19.889 20.9597 20.394 20.9597 20.7056 21.2712L22.4438 23.0095C22.7554 23.321 22.7554 23.8261 22.4438 24.1377C22.288 24.2935 22.0839 24.3713 21.8797 24.3713Z" fill="#424B5A"/>
<path d="M8.21223 10.7044C8.00801 10.7044 7.80395 10.6265 7.64816 10.4707L5.90992 8.73248C5.59839 8.42094 5.59839 7.91587 5.90992 7.60422C6.22151 7.29268 6.72648 7.29268 7.03818 7.60422L8.77641 9.34246C9.08795 9.65399 9.08795 10.1591 8.77641 10.4707C8.62051 10.6265 8.41645 10.7044 8.21223 10.7044Z" fill="#424B5A"/>
<path d="M15.65 5.24939C15.6159 5.24939 15.5818 5.24725 15.5476 5.24276C14.6407 5.12547 13.7105 5.12564 12.8052 5.2427C12.5653 5.27343 12.3238 5.19406 12.1493 5.02594C11.5723 4.46975 11.2544 3.7226 11.2544 2.9221C11.2543 1.31084 12.5652 0 14.1764 0C15.7877 0 17.0985 1.31084 17.0985 2.9221C17.0985 3.7226 16.7807 4.46975 16.2035 5.02605C16.0539 5.17023 15.855 5.24939 15.65 5.24939ZM14.1764 3.55897C14.5534 3.55897 14.9331 3.57661 15.3102 3.61145C15.4359 3.40597 15.5031 3.16959 15.5031 2.92204C15.5031 2.1905 14.908 1.59542 14.1764 1.59542C13.4449 1.59542 12.8498 2.19056 12.8498 2.92204C12.8498 3.16959 12.9169 3.40586 13.0426 3.61134C13.4194 3.57661 13.7992 3.55897 14.1764 3.55897Z" fill="#424B5A"/>
<path d="M11.0072 20.5023C10.513 20.5023 10.0393 20.239 9.77107 19.8152C9.50336 19.3919 9.47246 18.8668 9.68857 18.4107L11.724 14.1142C11.8683 13.8099 12.1152 13.5628 12.4196 13.4186L16.7162 11.383C16.9171 11.2879 17.1288 11.2397 17.3458 11.2397C17.8401 11.2397 18.3138 11.503 18.582 11.9268C18.8497 12.3501 18.8806 12.8752 18.6645 13.3313L16.629 17.6278C16.4848 17.9321 16.2378 18.1791 15.9334 18.3234L11.6368 20.359C11.436 20.4541 11.2242 20.5023 11.0072 20.5023ZM13.1457 14.84L11.2895 18.758L15.2074 16.9018L17.0635 12.9838L13.1457 14.84Z" fill="#424B5A"/>
</svg>
